<?xml version="1.0" standalone="no"?><!DOCTYPE svg PUBLIC "-//W3C//DTD SVG 1.1//EN" "http://www.w3.org/Graphics/SVG/1.1/DTD/svg11.dtd"><svg t="1625482593046" class="icon" viewBox="0 0 1024 1024" version="1.1" xmlns="http://www.w3.org/2000/svg" p-id="1749" xmlns:xlink="http://www.w3.org/1999/xlink" width="200" height="200"><defs><style type="text/css"></style></defs><path d="M14.2 5.5c0.6 0 1 0.5 1 1v7.7c0 0.6-0.4 1-1 1H1.8c-0.6 0-1-0.5-1-1V6.5c0-0.6 0.4-1 1-1h12.4m0-0.5H1.8C1 5 0.3 5.7 0.3 6.5v7.7c0 0.8 0.7 1.5 1.5 1.5h12.3c0.8 0 1.5-0.7 1.5-1.5V6.5c0.1-0.8-0.6-1.5-1.4-1.5z" fill="" p-id="1750"></path><path d="M6.5 10.1h3v0.5h-3z" fill="" p-id="1751"></path><path d="M7.7 8.8h0.5v3h-0.5zM9.2 3.1c0.3 0 0.5 0.2 0.5 0.5V5H6.2V3.6c0-0.3 0.2-0.5 0.5-0.5h2.5m0-0.5H6.7c-0.6 0-1 0.4-1 1v1.9h4.5V3.6c0-0.5-0.4-1-1-1z" fill="" p-id="1752"></path><path d="M679.1 109.5c66.3-18.3 137.7 0.1 186.2 48.1 36.2 35.8 56.4 83.8 56.7 135.2 0.3 51.4-19.2 99.6-55 135.8L436 864.9c-23.4 23.7-52.7 40.9-84.8 49.7-66.3 18.3-137.7-0.1-186.2-48.1-36.2-35.8-56.4-83.8-56.7-135.2-0.3-51.4 19.2-99.6 55-135.8l431-436.3c23.4-23.6 52.7-40.8 84.8-49.7m-10.2-36.9c-37.5 10.3-72.8 30.2-101.9 59.7L136 568.6c-88.9 90-88 236.3 2 325.2 60.5 59.8 146.5 78.9 223.3 57.8 37.5-10.3 72.8-30.2 101.9-59.7l431-436.3c88.9-90 88-236.3-2-325.2-60.4-59.8-146.4-79-223.3-57.8z" fill="" p-id="1753"></path><path d="M600.1 250.9c-6.4 1.8-13.5 0.1-18.6-4.9-7.5-7.4-7.6-19.6-0.2-27.1l26-26.4c29.8-30.2 69.5-47 112.3-47.1 24.3-0.1 48.8 5.4 70.6 15.9 9.5 4.6 13.5 16.1 8.9 25.6-4.5 9.5-16 13.4-25.6 8.9-16.6-8-35.1-12.2-53.7-12.1-32.1 0.3-62.6 12.9-85.1 35.8l-26 26.4c-2.5 2.5-5.4 4.2-8.6 5z" fill="" p-id="1754"></path><path d="M705 637.7c-7 1.9-14.8 0.1-19.6-5.3-1-1.2-106.9-118.5-145.2-153.8-36.7-34-158.4-127.7-159.6-128.6-8.1-6.2-9-17.5-2.1-25.3 6.9-7.8 19-9.1 27.1-2.9 5.1 3.9 124.1 95.6 162.1 130.7 39.4 36.4 143 151.2 147.4 156.1 6.7 7.4 5.5 18.8-2.7 25.4-2.2 1.7-4.8 3-7.4 3.7z" fill="" p-id="1755"></path></svg>